<svg xmlns="http://www.w3.org/2000/svg" viewBox="0 0 54 52" width="54" height="52">
	<style>
		tspan { white-space:pre }
		.shp0 { fill: #f7c820;stroke: #cea615 } 
	</style>
	<g id="icons">
		<g id="Group 7">
			<path id="Ellipse 5 copy 9" class="shp0" d="M49 29C47.34 29 46 27.66 46 26C46 24.34 47.34 23 49 23C50.66 23 52 24.34 52 26C52 27.66 50.66 29 49 29ZM27 42C18.16 42 11 34.84 11 26C11 17.16 18.16 10 27 10C35.84 10 43 17.16 43 26C43 34.84 35.84 42 27 42ZM27 7C25.34 7 24 5.66 24 4C24 2.34 25.34 1 27 1C28.66 1 30 2.34 30 4C30 5.66 28.66 7 27 7ZM5 29C3.34 29 2 27.66 2 26C2 24.34 3.34 23 5 23C6.66 23 8 24.34 8 26C8 27.66 6.66 29 5 29ZM27 45C28.66 45 30 46.34 30 48C30 49.66 28.66 51 27 51C25.34 51 24 49.66 24 48C24 46.34 25.34 45 27 45ZM40.44 12.56C39.26 11.39 39.26 9.49 40.44 8.32C41.61 7.15 43.51 7.15 44.68 8.32C45.85 9.49 45.85 11.39 44.68 12.56C43.51 13.74 41.61 13.74 40.44 12.56ZM13.56 39.44C14.74 40.61 14.74 42.51 13.56 43.68C12.39 44.85 10.49 44.85 9.32 43.68C8.15 42.51 8.15 40.61 9.32 39.44C10.49 38.26 12.39 38.26 13.56 39.44ZM40.44 39.44C41.61 38.26 43.51 38.26 44.68 39.44C45.85 40.61 45.85 42.51 44.68 43.68C43.51 44.85 41.61 44.85 40.44 43.68C39.26 42.51 39.26 40.61 40.44 39.44ZM13.56 12.56C12.39 13.74 10.49 13.74 9.32 12.56C8.15 11.39 8.15 9.49 9.32 8.32C10.49 7.15 12.39 7.15 13.56 8.32C14.74 9.49 14.74 11.39 13.56 12.56Z" />
		</g>
	</g>
</svg>